<?xml version="1.0" encoding="iso-8859-1"?>
<!-- Uploaded to: SVG Repo, www.svgrepo.com, Generator: SVG Repo Mixer Tools -->
<svg height="800px" width="800px" version="1.1" id="Layer_1" xmlns="http://www.w3.org/2000/svg" xmlns:xlink="http://www.w3.org/1999/xlink" 
	 viewBox="0 0 455 455" xml:space="preserve">
<g>
	<path style="fill:#FF5023;" d="M13.833,192.175l28.271,181.902c4.184,26.917,28.799,48.002,56.039,48.002H227.5l0-229.904H13.833z"
		/>
	<path style="fill:#FF3501;" d="M227.5,422.079h127.404c27.159,0,51.876-20.995,56.27-47.797l29.85-182.107H227.5L227.5,422.079z"/>
	<polygon style="fill:#FF7956;" points="265.371,32.921 237.678,61.785 331.89,152.175 389.667,152.175 	"/>
	<polygon style="fill:#FF9478;" points="215.479,61.68 187.569,33.026 65.245,152.175 122.573,152.175 	"/>
	<polygon style="fill:#CD2A00;" points="455,152.175 389.667,152.175 331.89,152.175 122.573,152.175 65.245,152.175 0,152.175 
		0,192.175 13.833,192.175 227.5,192.175 441.023,192.175 455,192.175 	"/>
</g>
</svg>